<mxfile host="app.diagrams.net" agent="Mozilla/5.0 (Windows NT 10.0; Win64; x64) AppleWebKit/537.36 (KHTML, like Gecko) Chrome/128.0.0.0 Safari/537.36" version="24.7.13">
  <diagram id="Ht1M8jgEwFfnCIfOTk4-" name="Page-1">
    <mxGraphModel dx="1564" dy="846" grid="1" gridSize="10" guides="1" tooltips="1" connect="1" arrows="1" fold="1" page="1" pageScale="1" pageWidth="1169" pageHeight="827" math="0" shadow="0">
      <root>
        <mxCell id="0" />
        <mxCell id="1" parent="0" />
        <mxCell id="p1m87pA8Hb7ykGGXvSjE-36" value="" style="rounded=1;whiteSpace=wrap;html=1;" vertex="1" parent="1">
          <mxGeometry x="350" y="430" width="260" height="110" as="geometry" />
        </mxCell>
        <mxCell id="p1m87pA8Hb7ykGGXvSjE-34" value="" style="rounded=1;whiteSpace=wrap;html=1;" vertex="1" parent="1">
          <mxGeometry x="660" y="410" width="430" height="150" as="geometry" />
        </mxCell>
        <mxCell id="p1m87pA8Hb7ykGGXvSjE-20" value="AWS Cloud" style="sketch=0;outlineConnect=0;gradientColor=none;html=1;whiteSpace=wrap;fontSize=12;fontStyle=0;shape=mxgraph.aws4.group;grIcon=mxgraph.aws4.group_aws_cloud;strokeColor=#AAB7B8;fillColor=none;verticalAlign=top;align=left;spacingLeft=30;fontColor=#AAB7B8;dashed=0;" vertex="1" parent="1">
          <mxGeometry x="170" y="300" width="940" height="290" as="geometry" />
        </mxCell>
        <mxCell id="p1m87pA8Hb7ykGGXvSjE-16" style="edgeStyle=orthogonalEdgeStyle;rounded=0;orthogonalLoop=1;jettySize=auto;html=1;" edge="1" parent="1" source="UEzPUAAOIrF-is8g5C7q-113" target="UEzPUAAOIrF-is8g5C7q-119">
          <mxGeometry relative="1" as="geometry">
            <Array as="points">
              <mxPoint x="960" y="460" />
              <mxPoint x="960" y="460" />
            </Array>
          </mxGeometry>
        </mxCell>
        <mxCell id="UEzPUAAOIrF-is8g5C7q-113" value="Lambda" style="outlineConnect=0;fontColor=#232F3E;gradientColor=#F78E04;gradientDirection=north;fillColor=#D05C17;strokeColor=#ffffff;dashed=0;verticalLabelPosition=bottom;verticalAlign=top;align=center;html=1;fontSize=12;fontStyle=0;aspect=fixed;shape=mxgraph.aws4.resourceIcon;resIcon=mxgraph.aws4.lambda;labelBackgroundColor=#ffffff;spacingTop=3;" parent="1" vertex="1">
          <mxGeometry x="840" y="440" width="78" height="78" as="geometry" />
        </mxCell>
        <mxCell id="p1m87pA8Hb7ykGGXvSjE-10" style="edgeStyle=orthogonalEdgeStyle;rounded=0;orthogonalLoop=1;jettySize=auto;html=1;" edge="1" parent="1" source="UEzPUAAOIrF-is8g5C7q-114" target="UEzPUAAOIrF-is8g5C7q-116">
          <mxGeometry relative="1" as="geometry">
            <Array as="points">
              <mxPoint x="640" y="500" />
              <mxPoint x="640" y="500" />
            </Array>
          </mxGeometry>
        </mxCell>
        <mxCell id="p1m87pA8Hb7ykGGXvSjE-11" style="edgeStyle=orthogonalEdgeStyle;rounded=0;orthogonalLoop=1;jettySize=auto;html=1;" edge="1" parent="1" source="UEzPUAAOIrF-is8g5C7q-114" target="UEzPUAAOIrF-is8g5C7q-113">
          <mxGeometry relative="1" as="geometry">
            <Array as="points">
              <mxPoint x="800" y="460" />
              <mxPoint x="800" y="460" />
            </Array>
          </mxGeometry>
        </mxCell>
        <mxCell id="p1m87pA8Hb7ykGGXvSjE-15" style="edgeStyle=orthogonalEdgeStyle;rounded=0;orthogonalLoop=1;jettySize=auto;html=1;" edge="1" parent="1" source="UEzPUAAOIrF-is8g5C7q-114" target="UEzPUAAOIrF-is8g5C7q-113">
          <mxGeometry relative="1" as="geometry">
            <Array as="points">
              <mxPoint x="800" y="500" />
              <mxPoint x="800" y="500" />
            </Array>
          </mxGeometry>
        </mxCell>
        <mxCell id="UEzPUAAOIrF-is8g5C7q-114" value="Amazon API&lt;br&gt;Gateway&lt;br&gt;" style="outlineConnect=0;fontColor=#232F3E;gradientColor=#945DF2;gradientDirection=north;fillColor=#5A30B5;strokeColor=#ffffff;dashed=0;verticalLabelPosition=bottom;verticalAlign=top;align=center;html=1;fontSize=12;fontStyle=0;aspect=fixed;shape=mxgraph.aws4.resourceIcon;resIcon=mxgraph.aws4.api_gateway;labelBackgroundColor=#ffffff;" parent="1" vertex="1">
          <mxGeometry x="680" y="440" width="78" height="78" as="geometry" />
        </mxCell>
        <mxCell id="p1m87pA8Hb7ykGGXvSjE-9" style="edgeStyle=orthogonalEdgeStyle;rounded=0;orthogonalLoop=1;jettySize=auto;html=1;" edge="1" parent="1" source="UEzPUAAOIrF-is8g5C7q-116" target="UEzPUAAOIrF-is8g5C7q-114">
          <mxGeometry relative="1" as="geometry">
            <Array as="points">
              <mxPoint x="640" y="460" />
              <mxPoint x="640" y="460" />
            </Array>
          </mxGeometry>
        </mxCell>
        <mxCell id="UEzPUAAOIrF-is8g5C7q-116" value="Amazon S3" style="outlineConnect=0;fontColor=#232F3E;gradientColor=#60A337;gradientDirection=north;fillColor=#277116;strokeColor=#ffffff;dashed=0;verticalLabelPosition=bottom;verticalAlign=top;align=center;html=1;fontSize=12;fontStyle=0;aspect=fixed;shape=mxgraph.aws4.resourceIcon;resIcon=mxgraph.aws4.s3;labelBackgroundColor=#ffffff;" parent="1" vertex="1">
          <mxGeometry x="520.0000000000002" y="440" width="78" height="78" as="geometry" />
        </mxCell>
        <mxCell id="p1m87pA8Hb7ykGGXvSjE-17" style="edgeStyle=orthogonalEdgeStyle;rounded=0;orthogonalLoop=1;jettySize=auto;html=1;" edge="1" parent="1" source="UEzPUAAOIrF-is8g5C7q-119" target="UEzPUAAOIrF-is8g5C7q-113">
          <mxGeometry relative="1" as="geometry">
            <Array as="points">
              <mxPoint x="950" y="500" />
              <mxPoint x="950" y="500" />
            </Array>
          </mxGeometry>
        </mxCell>
        <mxCell id="UEzPUAAOIrF-is8g5C7q-119" value="Amazon&lt;br&gt;DynamoDB&lt;br&gt;" style="outlineConnect=0;fontColor=#232F3E;gradientColor=#4D72F3;gradientDirection=north;fillColor=#3334B9;strokeColor=#ffffff;dashed=0;verticalLabelPosition=bottom;verticalAlign=top;align=center;html=1;fontSize=12;fontStyle=0;aspect=fixed;shape=mxgraph.aws4.resourceIcon;resIcon=mxgraph.aws4.dynamodb;labelBackgroundColor=#ffffff;spacingTop=5;" parent="1" vertex="1">
          <mxGeometry x="1000.0000000000002" y="440" width="78" height="78" as="geometry" />
        </mxCell>
        <mxCell id="p1m87pA8Hb7ykGGXvSjE-8" style="edgeStyle=orthogonalEdgeStyle;rounded=0;orthogonalLoop=1;jettySize=auto;html=1;entryX=0;entryY=0.5;entryDx=0;entryDy=0;entryPerimeter=0;" edge="1" parent="1" source="p1m87pA8Hb7ykGGXvSjE-1" target="p1m87pA8Hb7ykGGXvSjE-3">
          <mxGeometry relative="1" as="geometry">
            <mxPoint x="350" y="479" as="targetPoint" />
          </mxGeometry>
        </mxCell>
        <mxCell id="p1m87pA8Hb7ykGGXvSjE-1" value="Route53" style="sketch=0;points=[[0,0,0],[0.25,0,0],[0.5,0,0],[0.75,0,0],[1,0,0],[0,1,0],[0.25,1,0],[0.5,1,0],[0.75,1,0],[1,1,0],[0,0.25,0],[0,0.5,0],[0,0.75,0],[1,0.25,0],[1,0.5,0],[1,0.75,0]];outlineConnect=0;fontColor=#232F3E;fillColor=#8C4FFF;strokeColor=#ffffff;dashed=0;verticalLabelPosition=bottom;verticalAlign=top;align=center;html=1;fontSize=12;fontStyle=0;shape=mxgraph.aws4.resourceIcon;resIcon=mxgraph.aws4.route_53;" vertex="1" parent="1">
          <mxGeometry x="200" y="440" width="78" height="78" as="geometry" />
        </mxCell>
        <mxCell id="p1m87pA8Hb7ykGGXvSjE-6" style="edgeStyle=orthogonalEdgeStyle;rounded=0;orthogonalLoop=1;jettySize=auto;html=1;" edge="1" parent="1" source="p1m87pA8Hb7ykGGXvSjE-3" target="UEzPUAAOIrF-is8g5C7q-116">
          <mxGeometry relative="1" as="geometry" />
        </mxCell>
        <mxCell id="p1m87pA8Hb7ykGGXvSjE-3" value="Cloudfront" style="sketch=0;points=[[0,0,0],[0.25,0,0],[0.5,0,0],[0.75,0,0],[1,0,0],[0,1,0],[0.25,1,0],[0.5,1,0],[0.75,1,0],[1,1,0],[0,0.25,0],[0,0.5,0],[0,0.75,0],[1,0.25,0],[1,0.5,0],[1,0.75,0]];outlineConnect=0;fontColor=#232F3E;fillColor=#8C4FFF;strokeColor=#ffffff;dashed=0;verticalLabelPosition=bottom;verticalAlign=top;align=center;html=1;fontSize=12;fontStyle=0;aspect=fixed;shape=mxgraph.aws4.resourceIcon;resIcon=mxgraph.aws4.cloudfront;direction=east;" vertex="1" parent="1">
          <mxGeometry x="360" y="440" width="78" height="78" as="geometry" />
        </mxCell>
        <mxCell id="p1m87pA8Hb7ykGGXvSjE-18" value="Certificate Manager" style="sketch=0;points=[[0,0,0],[0.25,0,0],[0.5,0,0],[0.75,0,0],[1,0,0],[0,1,0],[0.25,1,0],[0.5,1,0],[0.75,1,0],[1,1,0],[0,0.25,0],[0,0.5,0],[0,0.75,0],[1,0.25,0],[1,0.5,0],[1,0.75,0]];outlineConnect=0;fontColor=#232F3E;fillColor=#DD344C;strokeColor=#ffffff;dashed=0;verticalLabelPosition=bottom;verticalAlign=top;align=center;html=1;fontSize=12;fontStyle=0;aspect=fixed;shape=mxgraph.aws4.resourceIcon;resIcon=mxgraph.aws4.certificate_manager_3;" vertex="1" parent="1">
          <mxGeometry x="278" y="320" width="78" height="78" as="geometry" />
        </mxCell>
        <mxCell id="p1m87pA8Hb7ykGGXvSjE-19" style="edgeStyle=orthogonalEdgeStyle;rounded=0;orthogonalLoop=1;jettySize=auto;html=1;entryX=0.5;entryY=0;entryDx=0;entryDy=0;entryPerimeter=0;" edge="1" parent="1" source="p1m87pA8Hb7ykGGXvSjE-18" target="p1m87pA8Hb7ykGGXvSjE-3">
          <mxGeometry relative="1" as="geometry" />
        </mxCell>
        <mxCell id="p1m87pA8Hb7ykGGXvSjE-22" style="edgeStyle=orthogonalEdgeStyle;rounded=0;orthogonalLoop=1;jettySize=auto;html=1;" edge="1" parent="1" target="p1m87pA8Hb7ykGGXvSjE-1">
          <mxGeometry relative="1" as="geometry">
            <mxPoint x="79" y="480" as="targetPoint" />
            <mxPoint x="80" y="400" as="sourcePoint" />
            <Array as="points">
              <mxPoint x="80" y="479" />
            </Array>
          </mxGeometry>
        </mxCell>
        <mxCell id="p1m87pA8Hb7ykGGXvSjE-21" value="Users" style="sketch=0;outlineConnect=0;fontColor=#232F3E;gradientColor=none;fillColor=#232F3D;strokeColor=none;dashed=0;verticalLabelPosition=bottom;verticalAlign=top;align=center;html=1;fontSize=12;fontStyle=0;aspect=fixed;pointerEvents=1;shape=mxgraph.aws4.users;" vertex="1" parent="1">
          <mxGeometry x="40" y="300" width="78" height="78" as="geometry" />
        </mxCell>
        <mxCell id="p1m87pA8Hb7ykGGXvSjE-30" style="edgeStyle=orthogonalEdgeStyle;rounded=0;orthogonalLoop=1;jettySize=auto;html=1;" edge="1" parent="1" source="p1m87pA8Hb7ykGGXvSjE-23">
          <mxGeometry relative="1" as="geometry">
            <mxPoint x="860" y="69" as="targetPoint" />
          </mxGeometry>
        </mxCell>
        <mxCell id="p1m87pA8Hb7ykGGXvSjE-32" style="edgeStyle=orthogonalEdgeStyle;rounded=0;orthogonalLoop=1;jettySize=auto;html=1;entryX=0.5;entryY=0;entryDx=0;entryDy=0;" edge="1" parent="1" target="p1m87pA8Hb7ykGGXvSjE-31">
          <mxGeometry relative="1" as="geometry">
            <mxPoint x="1009" y="130" as="sourcePoint" />
          </mxGeometry>
        </mxCell>
        <mxCell id="p1m87pA8Hb7ykGGXvSjE-23" value="Developer" style="sketch=0;outlineConnect=0;fontColor=#232F3E;gradientColor=none;fillColor=#232F3D;strokeColor=none;dashed=0;verticalLabelPosition=bottom;verticalAlign=top;align=center;html=1;fontSize=12;fontStyle=0;aspect=fixed;pointerEvents=1;shape=mxgraph.aws4.user;" vertex="1" parent="1">
          <mxGeometry x="970" y="30" width="78" height="78" as="geometry" />
        </mxCell>
        <mxCell id="p1m87pA8Hb7ykGGXvSjE-38" style="edgeStyle=orthogonalEdgeStyle;rounded=0;orthogonalLoop=1;jettySize=auto;html=1;" edge="1" parent="1" source="p1m87pA8Hb7ykGGXvSjE-24" target="UEzPUAAOIrF-is8g5C7q-116">
          <mxGeometry relative="1" as="geometry" />
        </mxCell>
        <mxCell id="p1m87pA8Hb7ykGGXvSjE-39" value="Upload files to S3" style="edgeLabel;html=1;align=center;verticalAlign=middle;resizable=0;points=[];" vertex="1" connectable="0" parent="p1m87pA8Hb7ykGGXvSjE-38">
          <mxGeometry x="-0.1324" y="3" relative="1" as="geometry">
            <mxPoint as="offset" />
          </mxGeometry>
        </mxCell>
        <mxCell id="p1m87pA8Hb7ykGGXvSjE-24" value="Github/Github Actions" style="dashed=0;outlineConnect=0;html=1;align=center;labelPosition=center;verticalLabelPosition=bottom;verticalAlign=top;shape=mxgraph.weblogos.github" vertex="1" parent="1">
          <mxGeometry x="780" y="31.5" width="75" height="75" as="geometry" />
        </mxCell>
        <mxCell id="p1m87pA8Hb7ykGGXvSjE-35" style="edgeStyle=orthogonalEdgeStyle;rounded=0;orthogonalLoop=1;jettySize=auto;html=1;" edge="1" parent="1">
          <mxGeometry relative="1" as="geometry">
            <mxPoint x="1010" y="240" as="sourcePoint" />
            <mxPoint x="879" y="414" as="targetPoint" />
          </mxGeometry>
        </mxCell>
        <mxCell id="p1m87pA8Hb7ykGGXvSjE-41" value="Backend" style="edgeLabel;html=1;align=center;verticalAlign=middle;resizable=0;points=[];" vertex="1" connectable="0" parent="p1m87pA8Hb7ykGGXvSjE-35">
          <mxGeometry x="0.0381" y="1" relative="1" as="geometry">
            <mxPoint as="offset" />
          </mxGeometry>
        </mxCell>
        <mxCell id="p1m87pA8Hb7ykGGXvSjE-31" value="Terraform" style="shape=image;verticalLabelPosition=bottom;verticalAlign=top;imageAspect=0;aspect=fixed;image=data:image/png,iVBORw0KGgoAAAANSUhEUgAAAHAAAACACAYAAADTcu1SAAAAAXNSR0IArs4c6QAADitJREFUeAHtnX1UlFUex5/7PDOAoiWnRGbo5G6FL7XV4lqnrFZAT6booOxOLyuD7FZmdbT3jlu5S55t/SM37XjWNirFGWpLVmEGNLUEcteOWcZmbyrlZh1mSDCtFAVmnrvfB7nwMIHAvD3PzNw5B+597jNz7+9+P3Nfnvs2gi3PveUPlubxAn9FpQIipXRWB+n4uGCu+28Lrd+dH5W5iGOjRSXvgGgUZPrw6bYzDTaL++7iYtoZHse6RE3We4GiAh2Nv5Iv6t37bPM8U6MmF3FsaC+A3TpQ4ZfUJ9ehNG68M989tjuce3SnQN8Au8xEabS2e+mBAot7uc3WlKw767lBwjkBKvpQQUjC/2XC976DADkf7SXhuulHAVJgaQSjIb32GAziktLNpveH9Cn+5rAoMGAJ7CPV67xe+h5KY+nC/GZTH/d5UAQVCAQgzFOqUbqg1ddxqDDPvXTxYpoYQZt5UioFAgTYFQOlI2RKVxw/4vkMIOep4uXeCCkQSBvYr2koljUSkR4sdaZ93O+b+I2QKhBcCfQzBb2hHK8g1xfkNf69cN4PF/jd5pdhUCCkADvto1TCs8d9su/HBgyUL8GwnCEMdvMouxQIPcAeaVPwzPj8l/We/QA5oyeY+0KpQDgBdtoJiBPxt81maawq+s3RjFAaz+MSBh6JCZVIaB9ne70dnxTmNT67eP6x80IVb7zHE/YS2EtgKiTIVHj0xMm2Bjx23MWnrXqpE9BFZAF2mYgqNRXPjy99We/+oCjPfVNAlvMPdSqgCUCmPaVCppfSXba8xtcLre6LWTh3B6+ALrr4AHmb0C6kwuycwZvO36kooGkJVCNAJ4dPU6kFGaRfNwD97cVqgMlYLWf2D+fXZxVAP4Lk5FTN0S1AFMcbOoTO2Y4nioooJpX5iymQk1M9JTu7ai+anjW6BagYiyUdyeitPuM77vncNs+dzzIQr+7MmVsvArgyWZZ3Q4PJig666MQMBATVxc8En7CpIM9dJ4jSg2UVYz4a6DOxdN9qfXdYS8t3j54541sKLYar86brEqg2tNNPaZYg+/ZhbPWFhXe4L/zJ/RgMQHVpbWk5doBSebk/PCW70QVQsRizHcjIotOttKHQ4n5g4UIsSo7B1/TpWzOzsqp2obrciPz2+4wcfQC7YKEBHyULdPXpJs/+wrmembHC8Oabt6einSvx+bwf4Ns64ChVVLSB54KDjs4EKtOtaB+3JFDjI+tcow+e6/16vWe1fprQ3Py/xR0d7X9CiRv0YH/UlsCfgKA0N1o36WRnV+c2Nx/+RBDklUOBp2gQOwCRGWQ+qjbpTJ9ePRHV5XZ0UKphfUBzpTEFkJVKVKu63qSTm1udglGU1Vhfux9fupuZ3YG4MQmwWwidbdKxWqmEx4J7W1vlBlmmD6DUBd0HiW2AXST1sEknJ2drTnNzdT0eC9aiBx2yFXtxAVDhiNkOTTbpoJ27BM9zm2XZuxNWXNldO4TIEzcAmV4AmQ4hywrnuncX5XuuYeGhdq3W2hEAt8Lno58hvbCtWo87gAwUqrHrw7FJB50SkpVVvaC5+eQhgFPGLsO6byRuAZ4FGdpNOtOmVV2PZ7r38DxXCngR2bkV5wC7ymOQm3TwSJCuTPP4fAKmeWjYqmVWe6hdkQjkXqxmaFEHxq+fXoL5x81YhLyzKK9pwA5HUVFtEkrcMlTHh1BVzge8iC8LER0u8z8M4rAMQSTPA6Q3fuH15BwdnQE36SjTPEeOnOx3mqcntvD6OqvQ0sqUE2WV5geJJFxFCNke3iSjJHbVJp3f57snqa1G79LVNc0zVh2uhb9XG+ioMH/ucJpvESVpDoxp0MIgHaaZ0iELvebjCBGu1oudvQAyo+wVadXD08xXCER8DNXqDyycu/pToE+AipklJaSjzGlaSSQxAx2dV1C1yvozn1vUL0AmjaMi7Sg6OncRapgsEPJvFs5dfSgwIEBmpt2VWl/mNP9aJNLtKJFfs3DuaqvAoAEyM+3OtDcuTDRNwFxwMUC2snDuaqPAkAEqZq4qJ6fLXKanDSRxAnpkr2tjOk9VUSAggEy69c4LvnE40++QDMKN6OTsY+HcjZwCQQFkZm7YnL770kzTtaIg3YnHjm9ZOHfDr0BIACpmFhcT2e5KW5cyMnEcNoo9i7/28JvPUwgZQCblmlcv+KHMmf64kGC8Au1jFQvnbngUCDlAZmZZeeoXaB8tkkhm4PkRs9L8FQ4FwgaQGbuh0rzjskzT1aIoLEHYcRbO3dAoEHaAiploH732yvQ1ojQyA23jWpRIX2jM57FEBCCT2V5x3jG0j/cbBDFTOdmQhXM3cAUiCpCZqRxH6XClTxMJwa5bcpiFc3foCmgCkJlpd5orUsaaLicieYII9EcWzt3BKxD00u7BJ9X3O9esIW24s4IfZNC3PgOFaloC1caVlpIz6mvuH5wCugHoby7Wdx3AbMcp/3B+3aMAVsN9qFuAWJuz3SgYx6GTU4Y/LBTjL6YAJg4OiyLJr6ubk69bgIqx2C7tLnOZbfihkSkwei/LQBy7J6HDE0lJ0uU1NXMqFB0078QMBkbp5rQ9WDh73YL8pkLsq1uBrbgRWbY+GNsi8x5CMa7sSEgwLt2+/RaPOk3dAlQ2ieDVXXV2+TfcZz266cd275OA+BBuhnXjiFooDf17MAz5AEpcnzWQbqvQwjzPPTjQZwUOvBupFm9teepJtI9/NBoNl2NIrrMaUd+PFT++sI2SJNpqa+dM6Q+eklfdAsRQWyJK4VLlwDvbXE+RUiLVcNZtGnMYi6zyiSRNA8iP1fei20/OiKL4jNGYMH7nztll6lqor3zpFiAzFtuj06gsr8dhPnsL8r6dwsKZi2WPNZYEU6ZIxPvRThxj4dHpkn8lJRkm1tTMfmrHjhmDeoTSPUAGAiVwskC9u1Gtlt2Vf+wiFq64t5YTn91pWjsiOTmDEHENHjuiapMOStlH+PJl4bHAum3bzK/UeRvIHzUAWUYAcn6bt+0gSuSyh6x0GAtX3BdeG3Xc4TQtMRJyNarVHep7+vSTZti1aOrU2ZNqay3vBGJj1AFUMolqdTh2By1vafMcsFk8Vv+Mr3eaPkP7OIMQyYKG8wv/+9pfkw7UFKtGjRoxrq7O8qKynihQm6ISIMssQF5MBXkjzknbVWg5msnCmetwplVdmmi+QhTEx1Gt6mSTDnmTEMOVtbWzH66szD7BbA3UjWqA3Zmm9CZKvB+gfSyxzWtK7Q6Hp7ictNtdpmeTkqVxRBTWob0J+NuujneofrRxB5F2Ltq5WbW1Mw8O9fP9vT82ACJ3aBtF/N2Nn09vwGPHI/7niL78zzHfOirT78Se8mtRGpUjiyPyArTvAe/hjAwzSt2craFONGYA9ghDz8Njx8rWJvenCyye3J7wsz4sstqH8dUbiSDdAWG/8b8fqmvELeOvBOOWGeigrCopmdwRqrjV8cQgwO7sZfgEuRrV6jYcmD6xO7TL43ClvT5sDJmAYaqnsdDqtP/9YK5R6t4xGKRfAdw9b745S+lphu0VywA7RUO1OoP6hP0Fc92r7/3diRS1kiUl5laslisWE4iySecN9b1A/AB3BKMot6KqzHrrrdz/BhLHUD8T8wDPCoJTAXE64MlTpxrwgyKLNuLUQLVQ9nLz11iEfLsoERxxTD5U3xuMH+BOYX5u2dixIyZgFKV8MJ8J1XviBOBZuZRTAvHo8YKr3VNfaPFk+4torzD/57JJpmuwWu5uQDnqf/+n18o0D3kVpXc8Bpz/UlqaHfFlIXEFsBsApVfKglyD0rjJZm36eXc4PJ2bdJzml0eNSMxAj3Vl/5t0yPuSJNyA6rIA8BrVcUTSr9v5wEiIgNKYT9p8uQD53MhEw1+VqSqWrrJJB/7H8LOxJYLg7VXlop27/+23Z21B6euer2Sfi7SLkSZ9vpTfhFB+ViBi1hGCmW6y1FGZ5tADmMHmOz6r0L7UUZZpUHkDBsn3FOU3XdfXW/QYxgH6UcFjx7Ver/xugcXtKLS2pPvd1t0lB9gnks5zRAtoW/tBDAQ8qedV4xxgnwDPBqKTk4wS+RfvCc8t53ibprc4QE3lDz5xDjB4DTWNgQPUVP7gE+cAg9dQ0xg4QE3lDz5xDjB4DTWNgQPUVP7gE+cAg9dQ0xg4QE3lDz5xDjB4DTWNgQPUVP7gE+cAg9dQ0xg4QE3lDz5xDjB4DTWNgQPUVP7gE+cAg9dQ0xg4QE3lDz5xDjB4DTWNgQPUVP7gE9ctQGNisoMfzzwwYN0CfKX8/O/48cxRDJCZzo9nZkr07eq2BPqbqz6eGUeIdO9h8H9fvF1HDUAFjHI8s6PSvGK4ZByH/Qt27GXQfHOJ1l+YqALIxCrZPNqDA+8WYFOlsodhDwuPRzcqATJQ9krTXoCcApA2bLPSbI8es0cLN6oBKoIpW8HsleYy4XxpPPzPAGTEd8lqAY6lGfUAWUYcjrRTKI1PSaI4ESA3sfBYd2MGIANVWmn6CiB/axDFbJTGj1h4rLoxB5CBAsi6SyeZJ+HAgkWoaFtYeKy5MQtQAdV1YMGLBnFYBn6DYjWq1rCclqTllyKmATJhSytTTjhc5ofwY81XAeQ2Fh4LblwAZKBKN5kPAORMSRBn42yXQyw8mt24AshAbXCZtgwbY/6FKJBH8BzyPQuPRjcuASqgSkpIh91lfs6YQHDONnkJf5qcIxrslyZuATLh1pebmvHYsZBQw2SUxl0sPFrcuAfIQNldqfU4Z3sqBgJuA8gjLFzvLgfoR2hDpWnj6AQTRnPEP6PH2up3W3eXHGAfSFaVk9P4+YLliYZEZXz1NZHgnEP+il4F/M8X1VNO/g8k+slcMVd8QwAAAABJRU5ErkJggg==" vertex="1" parent="1">
          <mxGeometry x="974.88" y="160" width="68.25" height="78" as="geometry" />
        </mxCell>
        <mxCell id="p1m87pA8Hb7ykGGXvSjE-37" style="edgeStyle=orthogonalEdgeStyle;rounded=0;orthogonalLoop=1;jettySize=auto;html=1;entryX=0.75;entryY=0;entryDx=0;entryDy=0;entryPerimeter=0;" edge="1" parent="1">
          <mxGeometry relative="1" as="geometry">
            <mxPoint x="960" y="190" as="sourcePoint" />
            <mxPoint x="480" y="430" as="targetPoint" />
          </mxGeometry>
        </mxCell>
        <mxCell id="p1m87pA8Hb7ykGGXvSjE-40" value="Frontend" style="edgeLabel;html=1;align=center;verticalAlign=middle;resizable=0;points=[];" vertex="1" connectable="0" parent="p1m87pA8Hb7ykGGXvSjE-37">
          <mxGeometry x="0.4181" y="-3" relative="1" as="geometry">
            <mxPoint as="offset" />
          </mxGeometry>
        </mxCell>
      </root>
    </mxGraphModel>
  </diagram>
</mxfile>
